<svg xmlns="http://www.w3.org/2000/svg" xmlns:xlink="http://www.w3.org/1999/xlink" width="1280" height="720" overflow="hidden"><defs><clipPath id="clip0"><path fill-rule="evenodd" d="M0 0 1280 0 1280 720 0 720Z" clip-rule="evenodd"/></clipPath></defs><g clip-path="url(#clip0)"><rect width="1280" height="720" x="0" y="0" fill="#E9EAED" fill-opacity="0"/><path fill="#5890F0" fill-rule="evenodd" stroke="#3465A4" stroke-linejoin="round" stroke-miterlimit="10" d="M123.854 106.5C76.6579 106.5 29.5001 153.629 29.5001 200.796L29.5001 578.129C29.5001 625.296 76.6579 672.462 123.854 672.462L1154.07 672.462C1201.27 672.462 1248.46 625.296 1248.46 578.129L1248.46 200.796C1248.46 153.629 1201.27 106.5 1154.07 106.5L123.854 106.5"/><rect width="518" height="307" x="624.5" y="336.5" fill="#F34F46" stroke="#3465A4" stroke-linejoin="round" stroke-miterlimit="10"/><text font-family="Arial,Arial_MSFontService,sans-serif" font-size="24" font-weight="400" transform="translate(816.613 364)">Repositories</text><rect width="231" height="197" x="643.5" y="434.5" fill="#54C7EC" stroke="#3465A4" stroke-linejoin="round" stroke-miterlimit="10"/><text font-family="Arial,Arial_MSFontService,sans-serif" font-size="24" font-weight="400" transform="translate(695.14 462)">ObjectStore</text><rect width="211" height="61" x="653.5" y="557.5" fill="#60CE82" stroke="#3465A4" stroke-linejoin="round" stroke-miterlimit="10"/><text font-family="Arial,Arial_MSFontService,sans-serif" font-size="24" font-weight="400" transform="translate(687.147 596)">BackingStore</text><rect width="230" height="197" x="893.5" y="434.5" fill="#54C7EC" stroke="#3465A4" stroke-linejoin="round" stroke-miterlimit="10"/><text font-family="Arial,Arial_MSFontService,sans-serif" font-size="24" font-weight="400" transform="translate(944.74 462)">ObjectStore</text><rect width="461" height="61" x="653.5" y="482.5" fill="#3B5998" stroke="#3465A4" stroke-linejoin="round" stroke-miterlimit="10"/><text fill="#FFF" font-family="Arial,Arial_MSFontService,sans-serif" font-size="24" font-weight="400" transform="translate(825.933 521)">LocalStore</text><rect width="212" height="61" x="902.5" y="557.5" fill="#60CE82" stroke="#3465A4" stroke-linejoin="round" stroke-miterlimit="10"/><text font-family="Arial,Arial_MSFontService,sans-serif" font-size="24" font-weight="400" transform="translate(936.747 596)">BackingStore<tspan x="-244.98" y="-180" fill="#FFF">fbsource</tspan><tspan x="13.308" y="-180" fill="#FFF">opsfiles</tspan></text><rect width="518" height="87" x="624.5" y="182.5" fill="#FAA61A" stroke="#3465A4" stroke-linejoin="round" stroke-miterlimit="10"/><text font-family="Arial,Arial_MSFontService,sans-serif" font-size="24" font-weight="400" transform="translate(810.627 234)">Thrift Handler<tspan x="-661.633" y="180">fbsource1</tspan><tspan x="-402.433" y="178">fbsource2</tspan><tspan x="-534.44" y="-89">opsfiles</tspan></text><rect width="250" height="220" x="192.5" y="154.5" fill="#3B5998" stroke="#3465A4" stroke-linejoin="round" stroke-miterlimit="10"/><text fill="#FFF" font-family="Arial,Arial_MSFontService,sans-serif" font-size="24" font-weight="400" transform="translate(255.527 181)">EdenMount</text><rect width="230" height="39" x="202.5" y="326.5" fill="#FAA61A" stroke="#3465A4" stroke-linejoin="round" stroke-miterlimit="10"/><text font-family="Arial,Arial_MSFontService,sans-serif" font-size="24" font-weight="400" transform="translate(245.54 354)">FuseChannel</text><rect width="115" height="48" x="202.5" y="269.5" fill="#F34F46" stroke="#3465A4" stroke-linejoin="round" stroke-miterlimit="10"/><text font-family="Arial,Arial_MSFontService,sans-serif" font-size="24" font-weight="400" transform="translate(217.913 301)">Overlay</text><rect width="230" height="67" x="202.5" y="192.5" fill="#60CE82" stroke="#3465A4" stroke-linejoin="round" stroke-miterlimit="10"/><text font-family="Arial,Arial_MSFontService,sans-serif" font-size="24" font-weight="400" transform="translate(280.84 234)">Inodes</text><rect width="106" height="48" x="326.5" y="269.5" fill="#8C72CB" stroke="#3465A4" stroke-linejoin="round" stroke-miterlimit="10"/><text font-family="Arial,Arial_MSFontService,sans-serif" font-size="24" font-weight="400" transform="translate(339.913 301)">Journal</text><rect width="250" height="221" x="67.5" y="422.5" fill="#3B5998" stroke="#3465A4" stroke-linejoin="round" stroke-miterlimit="10"/><text fill="#FFF" font-family="Arial,Arial_MSFontService,sans-serif" font-size="24" font-weight="400" transform="translate(130.727 450)">EdenMount</text><rect width="230" height="39" x="77.5" y="595.5" fill="#FAA61A" stroke="#3465A4" stroke-linejoin="round" stroke-miterlimit="10"/><text font-family="Arial,Arial_MSFontService,sans-serif" font-size="24" font-weight="400" transform="translate(120.74 623)">FuseChannel</text><rect width="115" height="48" x="77.5" y="538.5" fill="#F34F46" stroke="#3465A4" stroke-linejoin="round" stroke-miterlimit="10"/><text font-family="Arial,Arial_MSFontService,sans-serif" font-size="24" font-weight="400" transform="translate(93.1133 570)">Overlay</text><rect width="230" height="67" x="77.5" y="461.5" fill="#60CE82" stroke="#3465A4" stroke-linejoin="round" stroke-miterlimit="10"/><text font-family="Arial,Arial_MSFontService,sans-serif" font-size="24" font-weight="400" transform="translate(156.04 503)">Inodes</text><rect width="105" height="48" x="202.5" y="538.5" fill="#8C72CB" stroke="#3465A4" stroke-linejoin="round" stroke-miterlimit="10"/><text font-family="Arial,Arial_MSFontService,sans-serif" font-size="24" font-weight="400" transform="translate(215.113 570)">Journal</text><rect width="250" height="221" x="336.5" y="422.5" fill="#3B5998" stroke="#3465A4" stroke-linejoin="round" stroke-miterlimit="10"/><text fill="#FFF" font-family="Arial,Arial_MSFontService,sans-serif" font-size="24" font-weight="400" transform="translate(399.527 450)">EdenMount</text><rect width="230" height="39" x="346.5" y="595.5" fill="#FAA61A" stroke="#3465A4" stroke-linejoin="round" stroke-miterlimit="10"/><text font-family="Arial,Arial_MSFontService,sans-serif" font-size="24" font-weight="400" transform="translate(389.54 623)">FuseChannel</text><rect width="115" height="48" x="346.5" y="538.5" fill="#F34F46" stroke="#3465A4" stroke-linejoin="round" stroke-miterlimit="10"/><text font-family="Arial,Arial_MSFontService,sans-serif" font-size="24" font-weight="400" transform="translate(361.913 570)">Overlay</text><rect width="230" height="67" x="346.5" y="461.5" fill="#60CE82" stroke="#3465A4" stroke-linejoin="round" stroke-miterlimit="10"/><text font-family="Arial,Arial_MSFontService,sans-serif" font-size="24" font-weight="400" transform="translate(424.84 503)">Inodes</text><rect width="106" height="48" x="470.5" y="538.5" fill="#8C72CB" stroke="#3465A4" stroke-linejoin="round" stroke-miterlimit="10"/><text font-family="Arial,Arial_MSFontService,sans-serif" font-size="24" font-weight="400" transform="translate(483.913 570)">Journal</text></g></svg>