<svg xmlns="http://www.w3.org/2000/svg" xmlns:xlink="http://www.w3.org/1999/xlink" width="1280" height="720" overflow="hidden"><defs><clipPath id="clip0"><path fill-rule="evenodd" d="M0 0 1280 0 1280 720 0 720Z" clip-rule="evenodd"/></clipPath><clipPath id="clip1"><path fill-rule="evenodd" d="M168 182 423 182 423 385 168 385Z" clip-rule="evenodd"/></clipPath><clipPath id="clip2"><path fill-rule="evenodd" d="M422 182 565 182 565 385 422 385Z" clip-rule="evenodd"/></clipPath><clipPath id="clip3"><path fill-rule="evenodd" d="M168 231 423 231 423 434 168 434Z" clip-rule="evenodd"/></clipPath><clipPath id="clip4"><path fill-rule="evenodd" d="M422 231 565 231 565 434 422 434Z" clip-rule="evenodd"/></clipPath><clipPath id="clip5"><path fill-rule="evenodd" d="M168 280 423 280 423 482 168 482Z" clip-rule="evenodd"/></clipPath><clipPath id="clip6"><path fill-rule="evenodd" d="M422 280 565 280 565 482 422 482Z" clip-rule="evenodd"/></clipPath><clipPath id="clip7"><path fill-rule="evenodd" d="M168 329 423 329 423 531 168 531Z" clip-rule="evenodd"/></clipPath><clipPath id="clip8"><path fill-rule="evenodd" d="M422 329 565 329 565 531 422 531Z" clip-rule="evenodd"/></clipPath><clipPath id="clip9"><path fill-rule="evenodd" d="M168 378 423 378 423 580 168 580Z" clip-rule="evenodd"/></clipPath><clipPath id="clip10"><path fill-rule="evenodd" d="M422 378 565 378 565 580 422 580Z" clip-rule="evenodd"/></clipPath><clipPath id="clip11"><path fill-rule="evenodd" d="M168 427 423 427 423 629 168 629Z" clip-rule="evenodd"/></clipPath><clipPath id="clip12"><path fill-rule="evenodd" d="M422 427 565 427 565 629 422 629Z" clip-rule="evenodd"/></clipPath><clipPath id="clip13"><path fill-rule="evenodd" d="M168 475 423 475 423 678 168 678Z" clip-rule="evenodd"/></clipPath><clipPath id="clip14"><path fill-rule="evenodd" d="M422 475 565 475 565 678 422 678Z" clip-rule="evenodd"/></clipPath><clipPath id="clip15"><path fill-rule="evenodd" d="M168 524 423 524 423 727 168 727Z" clip-rule="evenodd"/></clipPath><clipPath id="clip16"><path fill-rule="evenodd" d="M422 524 565 524 565 727 422 727Z" clip-rule="evenodd"/></clipPath></defs><g clip-path="url(#clip0)"><rect width="1280" height="720" x="0" y="0" fill="#E9EAED" fill-opacity="0"/><path fill="#5E8AC7" fill-rule="evenodd" d="M168.458 117.738 563.57 117.738 563.57 167.816 168.458 167.816Z"/><path fill="#5E8AC7" fill-rule="evenodd" d="M168.458 167.816 563.57 167.816 563.57 214.305 168.458 214.305Z"/><path fill="#5E8AC7" fill-rule="evenodd" d="M168.458 214.305 563.57 214.305 563.57 259.168 168.458 259.168Z"/><path fill="none" fill-rule="evenodd" stroke="#FFF" stroke-linejoin="round" stroke-miterlimit="10" stroke-width=".076" d="M168.42 167.816 563.608 167.816"/><path fill="none" fill-rule="evenodd" stroke="#FFF" stroke-linejoin="round" stroke-miterlimit="10" stroke-width=".076" d="M168.42 214.305 563.608 214.305"/><path fill="none" fill-rule="evenodd" stroke="#FFF" stroke-linejoin="round" stroke-miterlimit="10" stroke-width=".076" d="M168.458 117.7 168.458 259.205"/><path fill="none" fill-rule="evenodd" stroke="#FFF" stroke-linejoin="round" stroke-miterlimit="10" stroke-width=".076" d="M563.57 117.7 563.57 259.205"/><path fill="none" fill-rule="evenodd" stroke="#FFF" stroke-linejoin="round" stroke-miterlimit="10" stroke-width=".076" d="M168.42 117.738 563.608 117.738"/><path fill="none" fill-rule="evenodd" stroke="#FFF" stroke-linejoin="round" stroke-miterlimit="10" stroke-width=".076" d="M168.42 259.168 563.608 259.168"/><text font-family="Arial,Arial_MSFontService,sans-serif" font-size="24" font-weight="400" transform="translate(262.141 146)">atime, mtime, ctime<tspan x="65.26" y="50">uid, gid</tspan><tspan x="19.98" y="96">mode, nlink, etc</tspan></text><rect width="396" height="39" x="168.5" y="74.5" fill="#5890F0" stroke="#3465A4" stroke-linejoin="round" stroke-miterlimit="10"/><text font-family="Arial,Arial_MSFontService,sans-serif" font-size="24" font-weight="400" transform="translate(261.864 102)">Directory <tspan x="102.533" y="0">45352507</tspan></text><rect width="395" height="39" x="676.5" y="74.5" fill="#5890F0" stroke="#3465A4" stroke-linejoin="round" stroke-miterlimit="10"/><text font-family="Arial,Arial_MSFontService,sans-serif" font-size="24" font-weight="400" transform="translate(797.88 102)">File 45352510</text><path fill="#5E8AC7" fill-rule="evenodd" d="M168.458 264.157 422.934 264.157 422.934 313.064 168.458 313.064Z"/><path fill="#5E8AC7" fill-rule="evenodd" d="M422.934 264.157 564.364 264.157 564.364 313.064 422.934 313.064Z"/><path fill="#ADC5E7" fill-rule="evenodd" d="M168.458 313.064 422.934 313.064 422.934 361.971 168.458 361.971Z"/><path fill="#ADC5E7" fill-rule="evenodd" d="M422.934 313.064 564.364 313.064 564.364 361.971 422.934 361.971Z"/><path fill="#ADC5E7" fill-rule="evenodd" d="M168.458 361.971 422.934 361.971 422.934 410.878 168.458 410.878Z"/><path fill="#ADC5E7" fill-rule="evenodd" d="M422.934 361.971 564.364 361.971 564.364 410.878 422.934 410.878Z"/><path fill="#ADC5E7" fill-rule="evenodd" d="M168.458 410.878 422.934 410.878 422.934 459.785 168.458 459.785Z"/><path fill="#ADC5E7" fill-rule="evenodd" d="M422.934 410.878 564.364 410.878 564.364 459.785 422.934 459.785Z"/><path fill="#ADC5E7" fill-rule="evenodd" d="M168.458 459.785 422.934 459.785 422.934 508.692 168.458 508.692Z"/><path fill="#ADC5E7" fill-rule="evenodd" d="M422.934 459.785 564.364 459.785 564.364 508.692 422.934 508.692Z"/><path fill="#ADC5E7" fill-rule="evenodd" d="M168.458 508.692 422.934 508.692 422.934 557.599 168.458 557.599Z"/><path fill="#ADC5E7" fill-rule="evenodd" d="M422.934 508.692 564.364 508.692 564.364 557.599 422.934 557.599Z"/><path fill="#ADC5E7" fill-rule="evenodd" d="M168.458 557.599 422.934 557.599 422.934 606.506 168.458 606.506Z"/><path fill="#ADC5E7" fill-rule="evenodd" d="M422.934 557.599 564.364 557.599 564.364 606.506 422.934 606.506Z"/><path fill="#ADC5E7" fill-rule="evenodd" d="M168.458 606.506 422.934 606.506 422.934 655.489 168.458 655.489Z"/><path fill="#ADC5E7" fill-rule="evenodd" d="M422.934 606.506 564.364 606.506 564.364 655.489 422.934 655.489Z"/><path fill="none" fill-rule="evenodd" stroke="#FFF" stroke-linejoin="round" stroke-miterlimit="10" stroke-width=".076" d="M422.934 264.119 422.934 655.527"/><path fill="none" fill-rule="evenodd" stroke="#FFF" stroke-linejoin="round" stroke-miterlimit="10" stroke-width=".076" d="M168.42 313.064 564.401 313.064"/><path fill="none" fill-rule="evenodd" stroke="#FFF" stroke-linejoin="round" stroke-miterlimit="10" stroke-width=".076" d="M168.42 361.971 564.401 361.971"/><path fill="none" fill-rule="evenodd" stroke="#FFF" stroke-linejoin="round" stroke-miterlimit="10" stroke-width=".076" d="M168.42 410.878 564.401 410.878"/><path fill="none" fill-rule="evenodd" stroke="#FFF" stroke-linejoin="round" stroke-miterlimit="10" stroke-width=".076" d="M168.42 459.785 564.401 459.785"/><path fill="none" fill-rule="evenodd" stroke="#FFF" stroke-linejoin="round" stroke-miterlimit="10" stroke-width=".076" d="M168.42 508.692 564.401 508.692"/><path fill="none" fill-rule="evenodd" stroke="#FFF" stroke-linejoin="round" stroke-miterlimit="10" stroke-width=".076" d="M168.42 557.599 564.401 557.599"/><path fill="none" fill-rule="evenodd" stroke="#FFF" stroke-linejoin="round" stroke-miterlimit="10" stroke-width=".076" d="M168.42 606.506 564.401 606.506"/><path fill="none" fill-rule="evenodd" stroke="#FFF" stroke-linejoin="round" stroke-miterlimit="10" stroke-width=".076" d="M168.458 264.119 168.458 655.527"/><path fill="none" fill-rule="evenodd" stroke="#FFF" stroke-linejoin="round" stroke-miterlimit="10" stroke-width=".076" d="M564.364 264.119 564.364 655.527"/><path fill="none" fill-rule="evenodd" stroke="#FFF" stroke-linejoin="round" stroke-miterlimit="10" stroke-width=".076" d="M168.42 264.157 564.401 264.157"/><path fill="none" fill-rule="evenodd" stroke="#FFF" stroke-linejoin="round" stroke-miterlimit="10" stroke-width=".076" d="M168.42 655.489 564.401 655.489"/><g clip-path="url(#clip1)"><text font-family="Arial,Arial_MSFontService,sans-serif" font-size="24" font-weight="700" transform="translate(177.907 292)">Name</text></g><g clip-path="url(#clip2)"><text font-family="Arial,Arial_MSFontService,sans-serif" font-size="24" font-weight="700" transform="translate(432.383 292)">Inode</text></g><g clip-path="url(#clip3)"><text font-family="Arial,Arial_MSFontService,sans-serif" font-size="24" font-weight="400" transform="translate(177.907 341)">.</text></g><g clip-path="url(#clip4)"><text font-family="Arial,Arial_MSFontService,sans-serif" font-size="24" font-weight="400" transform="translate(432.383 341)">45352507</text></g><g clip-path="url(#clip5)"><text font-family="Arial,Arial_MSFontService,sans-serif" font-size="24" font-weight="400" transform="translate(177.907 390)">..</text></g><g clip-path="url(#clip6)"><text font-family="Arial,Arial_MSFontService,sans-serif" font-size="24" font-weight="400" transform="translate(432.383 390)">45350913</text></g><g clip-path="url(#clip7)"><text font-family="Arial,Arial_MSFontService,sans-serif" font-size="24" font-weight="400" transform="translate(177.907 439)">CMakeLists.txt</text></g><g clip-path="url(#clip8)"><text font-family="Arial,Arial_MSFontService,sans-serif" font-size="24" font-weight="400" transform="translate(432.383 439)">45352510</text></g><g clip-path="url(#clip9)"><text font-family="Arial,Arial_MSFontService,sans-serif" font-size="24" font-weight="400" transform="translate(177.907 488)">README.md</text></g><g clip-path="url(#clip10)"><text font-family="Arial,Arial_MSFontService,sans-serif" font-size="24" font-weight="400" transform="translate(432.383 488)">43784187</text></g><g clip-path="url(#clip11)"><text font-family="Arial,Arial_MSFontService,sans-serif" font-size="24" font-weight="400" transform="translate(177.907 536)">docs</text></g><g clip-path="url(#clip12)"><text font-family="Arial,Arial_MSFontService,sans-serif" font-size="24" font-weight="400" transform="translate(432.383 536)">48367499</text></g><g clip-path="url(#clip13)"><text font-family="Arial,Arial_MSFontService,sans-serif" font-size="24" font-weight="400" transform="translate(177.907 585)">install.sh</text></g><g clip-path="url(#clip14)"><text font-family="Arial,Arial_MSFontService,sans-serif" font-size="24" font-weight="400" transform="translate(432.383 585)">46794364</text></g><g clip-path="url(#clip15)"><text font-family="Arial,Arial_MSFontService,sans-serif" font-size="24" font-weight="400" transform="translate(177.907 634)">src</text></g><g clip-path="url(#clip16)"><text font-family="Arial,Arial_MSFontService,sans-serif" font-size="24" font-weight="400" transform="translate(432.383 634)">48109417</text></g><path fill="#ADC5E7" fill-rule="evenodd" d="M676.276 266.916 1071.39 266.916 1071.39 602.084 676.276 602.084Z"/><path fill="none" fill-rule="evenodd" stroke="#FFF" stroke-linejoin="round" stroke-miterlimit="10" stroke-width=".076" d="M676.276 266.878 676.276 602.122"/><path fill="none" fill-rule="evenodd" stroke="#FFF" stroke-linejoin="round" stroke-miterlimit="10" stroke-width=".076" d="M1071.39 266.878 1071.39 602.122"/><path fill="none" fill-rule="evenodd" stroke="#FFF" stroke-linejoin="round" stroke-miterlimit="10" stroke-width=".076" d="M676.238 266.916 1071.43 266.916"/><path fill="none" fill-rule="evenodd" stroke="#FFF" stroke-linejoin="round" stroke-miterlimit="10" stroke-width=".076" d="M676.238 602.084 1071.43 602.084"/><text font-family="Arial,Arial_MSFontService,sans-serif" font-size="24" font-weight="400" transform="translate(825.885 295)">Contents</text><path fill="#5E8AC7" fill-rule="evenodd" d="M676.276 119.136 1071.39 119.136 1071.39 169.215 676.276 169.215Z"/><path fill="#5E8AC7" fill-rule="evenodd" d="M676.276 169.215 1071.39 169.215 1071.39 215.703 676.276 215.703Z"/><path fill="#5E8AC7" fill-rule="evenodd" d="M676.276 215.703 1071.39 215.703 1071.39 260.566 676.276 260.566Z"/><path fill="none" fill-rule="evenodd" stroke="#FFF" stroke-linejoin="round" stroke-miterlimit="10" stroke-width=".076" d="M676.238 169.215 1071.43 169.215"/><path fill="none" fill-rule="evenodd" stroke="#FFF" stroke-linejoin="round" stroke-miterlimit="10" stroke-width=".076" d="M676.238 215.703 1071.43 215.703"/><path fill="none" fill-rule="evenodd" stroke="#FFF" stroke-linejoin="round" stroke-miterlimit="10" stroke-width=".076" d="M676.276 119.098 676.276 260.604"/><path fill="none" fill-rule="evenodd" stroke="#FFF" stroke-linejoin="round" stroke-miterlimit="10" stroke-width=".076" d="M1071.39 119.098 1071.39 260.604"/><path fill="none" fill-rule="evenodd" stroke="#FFF" stroke-linejoin="round" stroke-miterlimit="10" stroke-width=".076" d="M676.238 119.136 1071.43 119.136"/><path fill="none" fill-rule="evenodd" stroke="#FFF" stroke-linejoin="round" stroke-miterlimit="10" stroke-width=".076" d="M676.238 260.566 1071.43 260.566"/><text font-family="Arial,Arial_MSFontService,sans-serif" font-size="24" font-weight="400" transform="translate(769.958 147)">atime, mtime, ctime<tspan x="65.26" y="50">uid, gid</tspan><tspan x="19.98" y="97">mode, nlink, etc</tspan></text></g></svg>