<svg xmlns="http://www.w3.org/2000/svg" xmlns:xlink="http://www.w3.org/1999/xlink" width="1280" height="720" overflow="hidden"><defs><clipPath id="clip0"><path fill-rule="evenodd" d="M0 0 1280 0 1280 720 0 720Z" clip-rule="evenodd"/></clipPath></defs><g clip-path="url(#clip0)"><rect width="1280" height="720" x="0" y="0" fill="#E9EAED" fill-opacity="0"/><rect width="327" height="58" x="163.5" y="134.5" fill="#54C7EC" stroke="#3465A4" stroke-linejoin="round" stroke-miterlimit="10"/><text font-family="Arial,Arial_MSFontService,sans-serif" font-size="24" font-weight="400" transform="translate(277.127 172)">FileInode</text><rect width="327" height="259" x="163.5" y="192.5" fill="#54C7EC" stroke="#3465A4" stroke-linejoin="round" stroke-miterlimit="10"/><text font-family="Arial,Arial_MSFontService,sans-serif" font-size="24" font-weight="400" transform="translate(172.649 220)">Inode Number: 38271<tspan x="0" y="29">Object ID: &lt;none&gt;</tspan></text><rect width="308" height="240" x="710.5" y="134.5" fill="#8C72CB" stroke="#3465A4" stroke-linejoin="round" stroke-miterlimit="10"/><text font-family="Arial,Arial_MSFontService,sans-serif" font-size="24" font-weight="400" transform="translate(800.74 162)">ObjectStore</text><rect width="288" height="87" x="720.5" y="278.5" fill="#60CE82" stroke="#3465A4" stroke-linejoin="round" stroke-miterlimit="10"/><text font-family="Arial,Arial_MSFontService,sans-serif" font-size="24" font-weight="400" transform="translate(792.747 330)">BackingStore</text><rect width="288" height="87" x="720.5" y="182.5" fill="#3B5998" stroke="#3465A4" stroke-linejoin="round" stroke-miterlimit="10"/><text fill="#FFF" font-family="Arial,Arial_MSFontService,sans-serif" font-size="24" font-weight="400" transform="translate(806.733 234)">LocalStore</text><rect width="308" height="250" x="710.5" y="403.5" fill="#F34F46" stroke="#3465A4" stroke-linejoin="round" stroke-miterlimit="10"/><text fill="#FFF" font-family="Arial,Arial_MSFontService,sans-serif" font-size="24" font-weight="400" transform="translate(822.713 431)">Overlay</text><path d="M480.816 240.112 734.647 446.901 734.015 447.677 480.184 240.888ZM735.824 443.346 739.5 451.5 730.771 449.548Z"/><rect width="77" height="67" x="739.5" y="451.5" fill="#54C7EC" stroke="#3465A4" stroke-linejoin="round" stroke-miterlimit="10"/><text font-family="Arial,Arial_MSFontService,sans-serif" font-size="24" font-weight="400" transform="translate(744.3 493)">38271</text></g></svg>