<svg xmlns="http://www.w3.org/2000/svg" xmlns:xlink="http://www.w3.org/1999/xlink" width="1280" height="720" overflow="hidden"><defs><clipPath id="clip0"><path fill-rule="evenodd" d="M0 0 1280 0 1280 720 0 720Z" clip-rule="evenodd"/></clipPath></defs><g clip-path="url(#clip0)"><rect width="1280" height="720" x="0" y="0" fill="#E9EAED" fill-opacity="0"/><rect width="327" height="58" x="163.5" y="134.5" fill="#54C7EC" stroke="#3465A4" stroke-linejoin="round" stroke-miterlimit="10"/><text font-family="Arial,Arial_MSFontService,sans-serif" font-size="24" font-weight="400" transform="translate(277.127 172)">FileInode</text><rect width="327" height="259" x="163.5" y="192.5" fill="#54C7EC" stroke="#3465A4" stroke-linejoin="round" stroke-miterlimit="10"/><text font-family="Arial,Arial_MSFontService,sans-serif" font-size="24" font-weight="400" transform="translate(172.649 220)">Inode Number: 38271<tspan x="0" y="28">Object ID: </tspan><tspan x="113.187" y="28" font-family="Calibri,Calibri_MSFontService,sans-serif">204f2d5913e5...</tspan></text><rect width="308" height="240" x="710.5" y="134.5" fill="#8C72CB" stroke="#3465A4" stroke-linejoin="round" stroke-miterlimit="10"/><text font-family="Arial,Arial_MSFontService,sans-serif" font-size="24" font-weight="400" transform="translate(800.74 162)">ObjectStore</text><rect width="288" height="87" x="720.5" y="278.5" fill="#60CE82" stroke="#3465A4" stroke-linejoin="round" stroke-miterlimit="10"/><text font-family="Arial,Arial_MSFontService,sans-serif" font-size="24" font-weight="400" transform="translate(792.747 330)">BackingStore</text><rect width="288" height="87" x="720.5" y="182.5" fill="#3B5998" stroke="#3465A4" stroke-linejoin="round" stroke-miterlimit="10"/><text fill="#FFF" font-family="Arial,Arial_MSFontService,sans-serif" font-size="24" font-weight="400" transform="translate(806.733 234)">LocalStore</text><rect width="308" height="250" x="710.5" y="403.5" fill="#F34F46" stroke="#3465A4" stroke-linejoin="round" stroke-miterlimit="10"/><text fill="#FFF" font-family="Arial,Arial_MSFontService,sans-serif" font-size="24" font-weight="400" transform="translate(822.713 431)">Overlay</text><path d="M0.0411641-0.498303 223.396 17.9528 223.314 18.9494-0.0411641 0.498303ZM222.356 14.355 230 19 221.698 22.3278Z" transform="matrix(1 0 0 -1 480.5 240.5)"/></g></svg>